<svg width="83" height="50" viewBox="0 0 83 50" fill="none" xmlns="http://www.w3.org/2000/svg">
<g clip-path="url(#clip0_204_12963)">
<path d="M62.6185 18.7225C62.6803 18.7225 62.7316 18.6925 62.7925 18.6872C62.8525 18.6925 62.9046 18.7225 62.9664 18.7225C64.2176 18.7225 65.2339 17.7097 65.2339 16.4568V10.0579C65.2339 4.51022 60.7219 0 55.176 0H10.0579C4.51198 0 0 4.51022 0 10.0579V39.9447C0 45.4889 4.51198 50 10.0579 50H55.176C60.7219 50 65.2339 45.4898 65.2339 39.9447V38.6768C65.2339 37.4238 64.2185 36.4111 62.9664 36.4111C61.7153 36.4111 60.699 37.4238 60.699 38.6768V39.9447C60.699 42.9892 58.2213 45.4686 55.1751 45.4686H10.0579C7.01256 45.4686 4.53406 42.9892 4.53406 39.9447V18.7225H62.6185ZM10.0579 4.53141H55.176C58.2213 4.53141 60.6998 7.01079 60.6998 10.0579V14.1911H4.53406V10.0579C4.53406 7.01079 7.01167 4.53141 10.0579 4.53141Z" fill="#F44C11"/>
<path d="M52.6947 37.5441H42.092C42.0417 37.5441 42.002 37.5035 42.002 37.454V26.8513C42.002 26.801 42.0426 26.7612 42.092 26.7612H52.6947C52.7451 26.7612 52.7848 26.8018 52.7848 26.8513V37.454C52.7848 37.5035 52.7442 37.5441 52.6947 37.5441Z" fill="#43ADE5"/>
<path d="M79.2425 10.2104H73.5482C71.9368 10.2104 70.6318 11.5164 70.6318 13.1278V18.6569C70.1091 22.9632 66.1772 23.2166 66.1772 23.2166L66.2178 23.2634C66.0871 23.2405 65.9679 23.1857 65.8311 23.1857H61.3835C60.1253 23.1857 59.1055 24.2055 59.1055 25.4638V29.9104C59.1055 31.1686 60.1253 32.1885 61.3835 32.1885H65.8302C65.9361 32.1885 66.0271 32.1426 66.1295 32.1284L66.1763 32.1885C66.1763 32.1885 69.0574 31.9165 70.1073 34.4471V37.9799C70.1073 38.9794 70.917 39.7891 71.9174 39.7891H75.4501C76.4497 39.7891 77.2602 38.9794 77.2602 37.9799V34.4471C77.2602 33.4476 76.4497 32.637 75.4501 32.637H71.9174C71.8105 32.637 71.7187 32.6803 71.6163 32.698V32.6679C71.6163 32.6679 68.231 32.637 68.1074 29.9104V25.4638C69.1519 21.6802 73.1297 21.705 73.1297 21.705L73.0988 21.6502C73.2507 21.6749 73.3875 21.7412 73.5473 21.7412H79.2416C80.853 21.7412 82.159 20.4353 82.159 18.8238V13.1296C82.159 11.5164 80.853 10.2104 79.2425 10.2104Z" fill="#43ADE5"/>
</g>
<defs>
<clipPath id="clip0_204_12963">
<rect width="82.1596" height="50" fill="white"/>
</clipPath>
</defs>
</svg>
