<svg width="52" height="50" viewBox="0 0 52 50" fill="none" xmlns="http://www.w3.org/2000/svg">
<mask id="mask0_204_13019" style="mask-type:luminance" maskUnits="userSpaceOnUse" x="0" y="0" width="52" height="50">
<path d="M8.53384 20.7687C8.74832 20.2162 9.41261 19.5176 9.96518 19.391C10.5178 19.2629 10.7471 19.7798 10.5416 20.3323C10.3375 20.8849 10.0188 21.223 9.62708 21.4956C8.47725 25.6019 9.85347 29.1199 13.4281 30.0717C13.236 30.4217 13.0453 30.9207 12.9708 31.1888C12.8979 31.4569 12.8889 31.4822 12.871 31.6326C8.77513 30.5066 7.3006 26.3988 8.68577 21.7205C8.42661 21.6028 8.31937 21.3213 8.53384 20.7687ZM33.7364 16.01C33.6604 16.7369 32.6789 17.6961 31.6274 17.8465C30.5758 17.9969 29.8892 17.3043 29.9935 16.6177C30.0977 15.9326 30.5118 15.5468 31.0971 15.2028C31.1254 10.9385 27.9589 8.74759 23.8124 9.16314C23.9688 8.92185 24.1028 8.59716 24.1475 8.43034C24.1922 8.26353 24.1952 8.25161 24.1996 8.16671C28.9792 7.55903 32.7534 9.96445 32.7921 14.8527C33.4117 14.9853 33.8124 15.2832 33.7364 16.01ZM15.2288 32.9195C14.5258 32.921 13.9896 32.1092 14.2428 31.1441C14.496 30.1774 15.4358 29.388 16.1046 29.3523C16.7733 29.3165 17.0534 29.6561 17.1755 30.1908C22.5791 29.327 28.087 24.7023 30.2288 19.3046C30.5967 19.3687 31.1418 19.3612 31.4442 19.321C31.7465 19.2808 31.7778 19.2763 31.9521 19.2346C29.6316 25.59 23.1526 31.0294 16.8389 31.8501C16.4531 32.4831 15.9318 32.918 15.2288 32.9195ZM8.98663 20.6689C8.8496 21.0249 8.9762 21.2662 9.27707 21.2051C9.58389 21.1426 9.93688 20.7911 10.0724 20.4306C10.202 20.0851 10.0665 19.8542 9.75964 19.9227C9.46324 19.9898 9.11919 20.3264 8.98663 20.6689ZM21.8716 8.62546C21.5127 8.73716 21.1448 9.07079 21.051 9.37017C20.9542 9.67699 21.1716 9.83934 21.5365 9.72912C21.9104 9.61592 22.2887 9.27633 22.3825 8.96504C22.4734 8.66418 22.244 8.51226 21.8716 8.62546ZM32.8502 16.1515C32.9038 15.7121 32.4793 15.4306 31.9253 15.526C31.3816 15.6198 30.8827 16.0502 30.8216 16.4807C30.7576 16.932 31.1582 17.2299 31.7153 17.1465C32.2783 17.0616 32.801 16.6147 32.8502 16.1515ZM15.4344 32.0809C15.8782 32.0735 16.3563 31.6192 16.4829 31.083C16.6095 30.5483 16.3503 30.1253 15.9095 30.1432C15.4835 30.1611 15.0262 30.6034 14.8922 31.1247C14.7567 31.649 15.0024 32.0899 15.4344 32.0809ZM12.4436 11.4807C13.0468 10.9147 13.9688 10.5453 14.3039 10.8745C14.639 11.2037 14.2115 12.1569 13.5934 12.7363C12.9753 13.3142 12.5434 13.472 12.1472 13.4795C10.1275 15.6228 8.53533 17.9969 7.48678 20.3577C6.38013 22.8495 5.81415 25.4217 5.99288 27.7541C5.64883 27.9627 5.20647 28.3305 4.97114 28.5599C4.73581 28.7893 4.71496 28.8221 4.59431 28.9606C4.42452 26.2975 5.09625 23.3782 6.36226 20.5826C7.55976 17.9388 9.34707 15.2966 11.605 12.912C11.6244 12.5143 11.8389 12.0467 12.4436 11.4807ZM31.6214 32.5024C30.488 33.5123 28.3983 33.5823 27.4406 32.4235C26.4829 31.2647 26.9387 29.3627 27.9381 28.4557C28.9375 27.5486 29.8207 27.4503 30.7412 27.6722C34.0671 24.1363 35.9854 20.1849 36.5082 16.5849C36.9893 13.2725 36.2372 10.4202 34.3724 8.478C34.8669 8.20544 35.4805 7.76457 35.7873 7.50392C36.0942 7.24327 36.115 7.20603 36.2535 7.05709C38.6024 9.18101 39.6881 12.4324 39.2652 16.2796C38.8004 20.5036 36.5633 25.2087 32.5851 29.3836C32.8964 30.4202 32.7549 31.4926 31.6214 32.5024ZM4.34111 32.6469C4.1177 31.9543 4.56304 30.5706 5.40009 29.75C6.23566 28.9293 7.20379 28.9531 7.46444 29.5802C7.72509 30.2072 7.53891 30.8849 7.14868 31.6088C8.45937 33.8682 10.7427 35.2459 13.6619 35.5811C16.8806 35.9504 20.7382 35.0434 24.5809 32.7109C24.7477 33.2784 25.1216 33.9799 25.3822 34.33C25.6429 34.68 25.6801 34.7112 25.8454 34.8721C21.2967 37.6514 16.7525 38.6642 12.9962 38.0952C9.64347 37.5873 7.08612 35.8402 5.69649 33.1056C5.07391 33.3886 4.56453 33.3395 4.34111 32.6469ZM12.6968 11.7577C12.3155 12.1167 12.1427 12.5605 12.3051 12.7497C12.4734 12.9463 12.9262 12.8048 13.3164 12.4384C13.7111 12.0675 13.8853 11.6177 13.7081 11.4315C13.5368 11.2498 13.0825 11.3943 12.6968 11.7577ZM33.8064 5.32787C33.3804 5.14765 32.6208 5.36957 32.1055 5.82087C31.5887 6.27216 31.4978 6.79346 31.9044 6.98709C32.3259 7.18816 33.093 6.98113 33.6336 6.51345C34.1713 6.04726 34.2488 5.51554 33.8064 5.32787ZM30.6995 31.4956C31.4084 30.873 31.4978 29.8751 30.908 29.2704C30.3495 28.6969 29.3739 28.7133 28.7126 29.3121C28.0543 29.9093 27.9396 30.87 28.4594 31.4777C29.0075 32.1152 30.0143 32.1316 30.6995 31.4956ZM5.05008 31.9424C5.202 32.3833 5.70394 32.3594 6.17906 31.8888C6.65419 31.4181 6.9059 30.6987 6.74355 30.2787C6.58568 29.8691 6.08225 29.9064 5.62351 30.3577C5.16327 30.8104 4.90411 31.5149 5.05008 31.9424ZM30.8305 6.34812C28.5338 5.65405 25.8588 5.79108 23.1957 6.55664C20.7129 7.27157 18.157 8.54354 15.7933 10.2668C15.7561 10.0553 15.622 9.83785 15.5192 9.7455C15.4165 9.65316 15.3941 9.65167 15.3256 9.61741C17.953 7.66925 20.8082 6.21259 23.5979 5.36659C26.614 4.45209 29.6837 4.23016 32.3483 4.96296C33.1481 4.54592 33.9137 4.34634 34.6181 4.63082C35.3226 4.9153 35.3286 5.96087 34.3218 6.83219C33.3134 7.7035 31.7361 8.01628 31.1076 7.69457C30.4805 7.37136 30.5327 6.91411 30.8305 6.34812ZM24.1386 1.43153C25.132 1.05173 26.0703 1.28557 25.8171 2.14795C25.5639 3.01032 24.143 4.17059 23.1481 4.52209C22.1517 4.87359 21.7882 4.71423 21.5976 4.36272C18.3283 5.79555 15.2407 7.80478 12.6134 10.1402C10.0188 12.4458 7.71168 15.2191 5.93778 18.1891C5.68904 18.1384 5.27945 18.1861 5.04412 18.2531C4.80879 18.3201 4.78347 18.3365 4.64644 18.3901C6.61249 15.0806 9.16089 11.9975 12.0206 9.44315C14.922 6.85155 18.3551 4.60997 22.0131 2.985C22.5017 2.36242 23.1451 1.81134 24.1386 1.43153ZM11.5663 49.6442C10.1424 49.2882 9.15791 46.8694 9.71049 44.5444C10.2631 42.2209 12.098 40.6719 13.4102 40.8209C14.7224 40.9698 15.2958 41.9096 15.5744 43.3127C21.1388 43.2605 27.0817 40.6719 32.4138 36.4077C37.8666 32.0482 42.0906 26.4241 43.8139 20.514C44.8326 20.7121 46.3072 20.7628 47.1397 20.7136C47.9738 20.663 48.0721 20.6377 48.5294 20.5662C46.7853 27.708 41.7838 34.5102 35.1305 39.8051C28.6828 44.9347 21.5157 47.9001 14.8967 47.5337C14.0909 49.0827 12.9902 50.0002 11.5663 49.6442ZM1.98633 22.2656C2.40337 21.3392 3.46533 20.1953 4.286 19.9838C5.10668 19.7723 5.36584 20.6332 4.97114 21.57C4.57644 22.5069 4.03429 23.0878 3.41022 23.5495C2.17549 27.0556 1.82249 30.4455 2.40784 33.402C3.08553 36.8203 5.01731 39.8185 8.26426 41.5924C7.8785 42.3609 7.4689 43.4854 7.3006 44.1274C7.13229 44.7693 7.13081 44.8483 7.06676 45.2087C3.33426 42.8971 1.19396 39.2302 0.547546 35.1715C0.00092718 31.7369 0.523715 27.8524 1.99527 23.904C1.65568 23.6791 1.56929 23.192 1.98633 22.2656ZM23.9181 2.12114C23.294 2.35647 22.673 2.90606 22.5225 3.36034C22.3691 3.82504 22.7504 4.02164 23.3804 3.79376C24.0268 3.55992 24.6658 2.985 24.8118 2.51881C24.9548 2.05858 24.5541 1.88134 23.9181 2.12114ZM49.423 13.8667C49.3322 12.9388 48.0706 12.3446 46.6408 12.5456C45.2437 12.7422 44.1683 13.6225 44.1907 14.5117C44.2145 15.4515 45.3792 16.08 46.8404 15.9266C48.3358 15.7702 49.5139 14.8498 49.423 13.8667ZM11.9953 47.489C12.9098 47.6886 13.8615 46.7041 14.1296 45.3264C14.3918 43.9814 13.8794 42.8271 12.9991 42.702C12.1502 42.5814 11.2416 43.4884 10.9556 44.7649C10.6652 46.0666 11.1269 47.3043 11.9953 47.489ZM2.6387 22.1122C2.3706 22.7139 2.51359 23.1191 2.95893 23.0222C3.41469 22.9224 4.00152 22.3505 4.26366 21.7369C4.51686 21.1441 4.35303 20.7494 3.90024 20.8611C3.45788 20.9698 2.89935 21.5298 2.6387 22.1122ZM44.3664 11.9201C43.4877 7.68712 40.8842 4.79317 37.5032 3.29629C34.6226 2.01986 31.1031 1.79644 27.3915 2.51732C27.6536 2.1256 27.877 1.62218 27.944 1.36749C28.0111 1.1128 28.0021 1.09492 28.0125 0.969811C32.2604 0.000195503 36.3548 0.0910504 39.7999 1.38983C43.9464 2.95373 47.3125 6.23195 48.5919 11.1843C50.3331 11.4211 51.6199 12.0392 51.8136 13.5882C52.0087 15.1372 49.712 17.1956 46.9342 17.4533C44.1564 17.7095 42.1621 16.1813 42.1621 14.7872C42.1606 13.3916 43.0304 12.6186 44.3664 11.9201ZM17.6506 16.3124C17.8636 15.7404 18.2434 15.3085 18.8377 14.9868C19.5958 14.5861 20.8916 14.2331 21.474 14.4417C21.7123 14.5266 21.8433 14.7008 21.8746 14.957C21.9625 15.4694 22.2708 15.6481 22.8368 15.514C23.3417 15.4023 23.8466 15.2951 24.3709 15.1864C24.7284 13.0252 23.6485 12.2328 21.2565 12.7035C21.2833 12.6112 21.3101 12.5084 21.3369 12.4116C21.5246 11.7637 21.1657 11.5596 20.342 11.7935C20.2124 12.2045 20.0888 12.6201 19.9622 13.0461C17.603 13.7416 16.124 15.0762 15.3986 17.1539C14.0864 20.9951 21.0688 18.8235 20.4686 21.2468C20.2541 21.9588 19.8192 22.4592 19.1251 22.781C18.2747 23.192 16.8955 23.4274 16.3265 23.0625C16.112 22.9239 16.0018 22.702 15.9944 22.4026C15.9631 21.792 15.698 21.573 15.2035 21.6758C14.7686 21.7473 14.3337 21.8232 13.9181 21.8947C13.2851 24.2734 14.0671 25.4962 16.4338 25.4277C16.398 25.5617 16.3578 25.6958 16.3235 25.8238C16.0808 26.7413 16.4457 27.1762 17.4034 27.0958C17.5583 26.4822 17.7072 25.8745 17.8606 25.2757C20.7665 24.8661 22.6506 23.2054 23.2836 20.4262C24.3173 16.0666 17.0012 18.4348 17.6506 16.3124ZM20.4999 9.98977C16.6676 11.4747 13.0036 14.7291 10.9691 18.3127C10.8007 18.2784 10.5237 18.3067 10.3643 18.344C10.205 18.3812 10.1886 18.3901 10.0963 18.4274C12.3572 14.4104 16.4591 10.7553 20.7531 9.07377C21.0495 8.68205 21.4352 8.35587 22.0146 8.17118C22.5955 7.98798 23.1183 8.22331 22.9559 8.79078C22.7921 9.35825 21.9729 10.03 21.3965 10.2013C20.8186 10.3726 20.6056 10.2415 20.4999 9.98977Z" fill="white"/>
</mask>
<g mask="url(#mask0_204_13019)">
<path d="M52.0077 0H0V50H52.0077V0Z" fill="url(#paint0_linear_204_13019)"/>
</g>
<defs>
<linearGradient id="paint0_linear_204_13019" x1="5.79561" y1="7.04142" x2="53.28" y2="49.2397" gradientUnits="userSpaceOnUse">
<stop stop-color="#FF0066"/>
<stop offset="1" stop-color="#FFCC00"/>
</linearGradient>
</defs>
</svg>
