<svg width="58" height="50" viewBox="0 0 58 50" fill="none" xmlns="http://www.w3.org/2000/svg">
<g clip-path="url(#clip0_204_12996)">
<path fill-rule="evenodd" clip-rule="evenodd" d="M34.1317 21.807C36.5434 21.807 38.5159 23.7794 38.5159 26.1911V31.8872H29.8669C28.7787 31.8872 27.8878 32.7781 27.8878 33.8663V37.9314C27.8878 39.0195 28.7787 39.9104 29.8669 39.9104H38.5159V45.6065C38.5159 48.0182 36.5434 49.9907 34.1317 49.9907H11.775V49.999H5.88752C5.78227 49.999 5.67784 49.9956 5.57425 49.9907H5.57176C2.47883 49.8257 0 47.245 0 44.1123V20.4893C0 18.5599 1.57796 16.9819 3.50732 16.9819H7.29393L6.08145 19.0828H4.20845C3.45925 19.0828 2.8468 19.6961 2.8468 20.4453C2.8468 21.1945 3.46008 21.8078 4.20845 21.8078L34.1317 21.807Z" fill="#F44C11"/>
<path fill-rule="evenodd" clip-rule="evenodd" d="M46.6633 6.13857L47.6105 7.28641L51.335 0.835327C51.5314 0.495535 51.969 0.37868 52.3088 0.574267L57.1114 3.3473C57.4512 3.54372 57.5681 3.98131 57.3725 4.3211L41.021 32.6432C40.6506 32.1567 40.0655 31.8418 39.4108 31.8418H39.3486V26.1913C39.3486 25.0899 39.0014 24.0655 38.4121 23.2202L45.6455 10.691L47.8368 11.9556L47.2508 9.04669L47.081 8.20467L46.6633 6.13857Z" fill="url(#paint0_linear_204_12996)"/>
<path fill-rule="evenodd" clip-rule="evenodd" d="M35.4828 5.98376L35.8997 8.05069L36.0696 8.89271L36.6555 11.8017L34.4643 10.537L28.4375 20.976H34.1319C34.877 20.976 35.5872 21.1352 36.2303 21.4211L43.2292 9.29797L41.038 8.03328L43.85 7.08684L44.6638 6.81252L46.662 6.13956L45.1942 5.89342L46.1937 4.16214C46.3901 3.82235 46.2724 3.38476 45.9326 3.18834L41.1316 0.41448C40.7918 0.218063 40.3543 0.335747 40.1578 0.675539L36.4301 7.13159L35.4828 5.98376Z" fill="url(#paint1_linear_204_12996)"/>
<path fill-rule="evenodd" clip-rule="evenodd" d="M24.3019 5.82869L25.2492 6.97653L28.9795 0.515503C29.1759 0.175711 29.6135 0.0588556 29.9533 0.254443L34.7559 3.02748C35.0957 3.22389 35.2126 3.66148 35.017 4.00127L34.015 5.73753L35.4828 5.98367L33.4846 6.65662L32.6708 6.93094L29.8588 7.87739L32.05 9.14208L25.2177 20.9751H17.168L23.2842 10.3811L25.4755 11.6458L24.8895 8.73682L24.7196 7.89479L24.3019 5.82869Z" fill="url(#paint2_linear_204_12996)"/>
<path fill-rule="evenodd" clip-rule="evenodd" d="M22.3054 6.50076L24.3036 5.82781L22.8358 5.58166L23.8411 3.84126C24.0375 3.50147 23.9199 3.06389 23.5801 2.86747L18.7774 0.0952636C18.4376 -0.100324 18 0.0165313 17.8036 0.356323L5.89844 20.9751H13.9482L20.87 8.98622L18.6788 7.72153L21.4908 6.77508L22.3054 6.50076Z" fill="url(#paint3_linear_204_12996)"/>
<path fill-rule="evenodd" clip-rule="evenodd" d="M34.1324 21.807C36.5441 21.807 38.5165 23.7794 38.5165 26.1911V31.8872H29.8676C28.7794 31.8872 27.8885 32.7781 27.8885 33.8663V37.9314C27.8885 39.0195 28.7794 39.9104 29.8676 39.9104H38.5165V45.5427C32.1334 47.9818 24.745 47.6312 18.3652 43.9482C10.2798 39.2798 6.01829 30.533 6.67799 21.807H34.1324ZM7.56145 16.9819H7.70399L7.43713 17.4203C7.47691 17.2737 7.51835 17.1278 7.56145 16.9819Z" fill="url(#paint4_linear_204_12996)"/>
<path fill-rule="evenodd" clip-rule="evenodd" d="M40.603 33.8664V37.9315C40.603 38.5879 40.066 39.1241 39.4096 39.1241H29.8672C29.2109 39.1241 28.6738 38.587 28.6738 37.9315V33.8664C28.6738 33.21 29.2109 32.6738 29.8672 32.6738H39.4096C40.066 32.6738 40.603 33.21 40.603 33.8664ZM33.5743 35.8994C33.5743 35.0864 32.9154 34.4275 32.1024 34.4275C31.2894 34.4275 30.6305 35.0864 30.6305 35.8994C30.6305 36.7124 31.2894 37.3712 32.1024 37.3712C32.9154 37.3712 33.5743 36.7124 33.5743 35.8994Z" fill="#F44C11"/>
</g>
<defs>
<linearGradient id="paint0_linear_204_12996" x1="33.6073" y1="37.5059" x2="52.912" y2="3.663" gradientUnits="userSpaceOnUse">
<stop stop-color="#0083C7"/>
<stop offset="1" stop-color="#009BD8"/>
</linearGradient>
<linearGradient id="paint1_linear_204_12996" x1="24.5554" y1="34.6681" x2="42.2769" y2="3.97641" gradientUnits="userSpaceOnUse">
<stop stop-color="#A41F6C"/>
<stop offset="1" stop-color="#DD198D"/>
</linearGradient>
<linearGradient id="paint2_linear_204_12996" x1="31.0803" y1="3.84789" x2="15.537" y2="30.7698" gradientUnits="userSpaceOnUse">
<stop stop-color="#EE4623"/>
<stop offset="1" stop-color="#BC1E24"/>
</linearGradient>
<linearGradient id="paint3_linear_204_12996" x1="7.68287" y1="25.21" x2="20.4904" y2="4.02349" gradientUnits="userSpaceOnUse">
<stop stop-color="#F26B21"/>
<stop offset="1" stop-color="#F9B516"/>
</linearGradient>
<linearGradient id="paint4_linear_204_12996" x1="-57.7846" y1="50.9279" x2="40.3732" y2="27.1643" gradientUnits="userSpaceOnUse">
<stop stop-color="white"/>
<stop offset="1" stop-color="white"/>
</linearGradient>
<clipPath id="clip0_204_12996">
<rect width="57.4671" height="50" fill="white"/>
</clipPath>
</defs>
</svg>
