<svg width="77" height="50" viewBox="0 0 77 50" fill="none" xmlns="http://www.w3.org/2000/svg">
<g clip-path="url(#clip0_204_14343)">
<path fill-rule="evenodd" clip-rule="evenodd" d="M70.6135 25.8671C72.0057 25.8671 73.1346 26.996 73.1346 28.3882C73.1346 29.7804 72.0057 30.9093 70.6135 30.9093C69.2213 30.9093 68.0924 29.7804 68.0924 28.3882C68.0924 26.996 69.2213 25.8671 70.6135 25.8671ZM19.2672 10.5262H19.0827H18.6768V12.048H18.0476V12.3831V13.1051H21.8222V21.2019H18.9989H18.0476H15.6711V24.5298H18.0476V27.3032H16.6464V32.5458H18.0476V45.6948C18.0476 48.0623 19.9852 50 22.3528 50H71.7045C74.072 50 76.0097 48.0623 76.0097 45.6948V33.5182H72.0655H69.6611H66.434C63.6127 33.5182 61.305 31.2105 61.305 28.3892C61.305 25.5679 63.6137 23.2603 66.434 23.2603H69.6611H72.0655H76.0097V16.6893C76.0097 14.3218 74.072 12.3841 71.7045 12.3841H56.8452H47.7591H45.4355H41.1981C39.3223 12.3841 37.7875 10.8493 37.7875 8.97341C37.7875 7.09755 39.3223 5.56276 41.1981 5.56276H45.6699H45.4355H56.7126H57.676H59.5458H73.5465C74.9018 5.56276 76.0107 4.4538 76.0107 3.09851C76.0107 1.74322 74.9018 0.634262 73.5465 0.634262H59.5458H57.676H23.9235C23.8875 0.634262 23.8507 0.634262 23.8147 0.635259H21.518V0.932445H22.0715H22.4315V5.2546H18.9989H18.1822H17.5599V7.4825H17.7135H17.8641H18.0476H19.0827H19.2672V10.5262ZM2.95889 0H5.87989V2.921H2.95889V0ZM16.8618 2.55101V11.299H8.11377V2.55101H16.8618ZM21.7315 1.63253V4.55352H18.8105V1.63253H21.7315ZM21.0473 20.426H14.5033V13.882H21.0473V20.426ZM9.38528 30.3808V25.8013H13.9647V30.3808H9.38528ZM3.20622 24.3523H6.12721V27.2733H3.20622V24.3523ZM5.02124 15.2333H11.696V21.908H5.02124V15.2333ZM0 6.25486H4.75796V11.0128H0V6.25486ZM19.0648 30.9442V25.4134H24.5956V30.9442H19.0648ZM25.3655 23.4507V12.2694H36.5459V23.4497H25.3655V23.4507ZM30.9293 8.54858H24.3273V1.94667H30.9293V8.54858Z" fill="url(#paint0_linear_204_14343)"/>
</g>
<defs>
<linearGradient id="paint0_linear_204_14343" x1="38.0054" y1="0" x2="38.0054" y2="50" gradientUnits="userSpaceOnUse">
<stop stop-color="#558DFD"/>
<stop offset="1" stop-color="#61AFF7"/>
</linearGradient>
<clipPath id="clip0_204_14343">
<rect width="76.0107" height="50" fill="white"/>
</clipPath>
</defs>
</svg>
