<svg width="50" height="50" viewBox="0 0 50 50" fill="none" xmlns="http://www.w3.org/2000/svg">
<g clip-path="url(#clip0_204_13008)">
<path fill-rule="evenodd" clip-rule="evenodd" d="M39.2755 44.9109L36.5593 47.6271C37.4741 47.9702 38.3561 48.2486 39.2003 48.4619L42.3062 45.3549C41.4419 45.4016 40.4216 45.2478 39.2755 44.9109ZM35.6253 43.4297L33.0031 46.0519C33.81 46.4604 34.6027 46.8282 35.3748 47.1549L38.0374 44.4923C37.2747 44.2049 36.4684 43.8493 35.6253 43.4297ZM32.3416 41.5813L29.7089 44.2129C30.4543 44.6667 31.1902 45.0905 31.9157 45.4819L34.5359 42.8618C33.8257 42.4752 33.0929 42.0486 32.3416 41.5813ZM29.2688 39.522L26.6051 42.1846C27.3052 42.6728 27.9998 43.137 28.6884 43.5768L31.3301 40.9351C30.6554 40.4943 29.9664 40.0221 29.2688 39.522ZM26.3483 37.3104L23.6551 40.0036C24.318 40.521 24.9788 41.019 25.6371 41.496L28.3112 38.8223C27.6636 38.3407 27.0084 37.8369 26.3483 37.3104ZM18.2878 29.975L15.5556 32.7065C15.8399 32.9981 16.1277 33.2901 16.4182 33.5816C16.7091 33.8722 17.0007 34.16 17.2933 34.4435L20.0248 31.712C19.7332 31.4274 19.4413 31.1396 19.1507 30.8491C18.8602 30.5589 18.5717 30.2673 18.2878 29.975ZM15.8068 27.3242L13.0847 30.0464C13.623 30.6525 14.1763 31.2576 14.7455 31.8592L17.476 29.1298C16.904 28.5278 16.3472 27.9252 15.8068 27.3242ZM13.432 24.566L10.7304 27.2689C11.2395 27.8994 11.7663 28.5313 12.3105 29.1622L15.0274 26.446C14.4773 25.8172 13.9456 25.1895 13.432 24.566ZM11.1769 21.6894L8.50416 24.3631C8.98122 25.0204 9.4795 25.6822 9.99692 26.3451L12.6898 23.6515C12.1633 22.9911 11.6595 22.3366 11.1769 21.6894ZM9.06368 18.6701L6.423 21.3118C6.86178 22.0004 7.32701 22.695 7.81485 23.3951L10.4781 20.7314C9.97847 20.0334 9.50594 19.3451 9.06368 18.6701ZM7.13841 15.4643L4.51756 18.0845C4.91041 18.81 5.33388 19.5459 5.78728 20.2912L8.41891 17.6586C7.95195 16.9073 7.525 16.1745 7.13841 15.4643ZM5.50786 11.9628L2.84526 14.6254C3.17095 15.3975 3.53979 16.1891 3.94795 16.9971L6.57019 14.3749C6.15124 13.5314 5.79458 12.7259 5.50786 11.9628ZM2.37343 13.4409L5.08927 10.724C4.75105 9.57855 4.5976 8.55833 4.64388 7.69469L1.53832 10.8002C1.75057 11.6444 2.02999 12.5265 2.37343 13.4409ZM34.3546 15.6456C47.1547 28.4468 53.3432 43.0111 48.177 48.1772C43.6093 52.7449 31.6951 48.434 20.1487 38.5272C21.5837 37.3894 23.0451 36.1764 24.5215 34.8921C24.7675 34.6777 25.0132 34.4623 25.2603 34.2438L27.6807 36.6639L28.9775 31.8258L30.2726 26.986L25.4342 28.2829L20.5948 29.5797L22.7862 31.7708C21.075 33.282 19.3136 34.7571 17.5157 36.1649C16.889 35.5765 16.2654 34.9735 15.6461 34.3541C2.84665 21.553 -3.34324 6.98937 1.82295 1.82318C6.38995 -2.74416 18.3059 1.56569 29.8513 11.4722L29.813 11.5021L29.7851 11.5247L29.7458 11.5557L29.7183 11.5786L29.679 11.6096L29.6515 11.6322L29.6112 11.6632L29.5844 11.6858L29.5444 11.7168L29.5176 11.7387L29.4775 11.7718L29.4508 11.7933L29.4093 11.8253L29.3839 11.8473L29.3415 11.88L29.3168 11.9005L29.2747 11.9336L29.2489 11.9541L29.2068 11.9882L29.1821 12.0087L29.14 12.0425L29.1153 12.062L29.0722 12.0967L29.0482 12.1162L29.0043 12.1514L28.9814 12.1705L28.9368 12.2057L28.9132 12.2251L28.869 12.261L28.8463 12.2794L28.8011 12.3153L28.7785 12.3337L28.7329 12.3709L28.6651 12.4256L28.6442 12.4433L28.5969 12.4816L28.576 12.499L28.5287 12.5373L28.5092 12.5536L28.4608 12.5929L28.4413 12.6093L28.393 12.6486L28.3745 12.6639L28.3251 12.7043L28.3067 12.7196L28.2569 12.76L28.2385 12.7753L28.189 12.8167L28.1716 12.8309L28.1212 12.8724L28.1038 12.887L28.0533 12.9291L28.0359 12.9433L27.9855 12.9847L27.9681 12.9994L27.9166 13.0415L27.9013 13.055L27.8487 13.0982L27.8334 13.1118L27.7809 13.1549L27.7656 13.1674L27.7116 13.2113L27.697 13.2234L27.6434 13.268L27.6288 13.2805L27.5752 13.3261L27.5606 13.3372L27.506 13.3828L27.4924 13.394L27.4378 13.4406L27.4242 13.4507L27.3696 13.4973L27.356 13.5074L27.3004 13.5547L27.2882 13.5651L27.2315 13.6125L27.22 13.6219L27.1633 13.6702L27.1518 13.6793L27.094 13.728L27.0839 13.737L27.0262 13.7854L27.0161 13.7938L26.9573 13.8432L26.9479 13.8515L26.8884 13.9009L26.8793 13.9093L26.8205 13.9594L26.8111 13.9667L26.7513 14.0171L26.7429 14.0245L26.6824 14.076L26.6751 14.0833L26.6145 14.1344L26.6062 14.1407L26.5456 14.1932L26.5383 14.1984L26.4764 14.252L26.4701 14.2576L26.4071 14.3112L26.4009 14.3164L26.3379 14.3703L26.333 14.3742L26.269 14.4288L26.2638 14.4333L26.2001 14.4879L26.1956 14.4918L26.1315 14.5474L26.1263 14.5506L26.0627 14.6062L26.0585 14.6101L25.9938 14.6658L25.9892 14.6689L25.9245 14.7256L25.9214 14.7273L25.8556 14.7851L25.8525 14.7872L25.7867 14.8446L25.7846 14.8456L25.7178 14.9045L25.7157 14.9055L25.6479 14.964V14.965L25.5786 15.0238V15.0245L25.5097 15.0833L25.4983 15.0934L25.4868 15.1038L25.4756 15.1139L25.4652 15.1223L25.4635 15.1233L25.4523 15.1334L25.4408 15.1435L25.4294 15.1539L25.4221 15.1602L25.4182 15.163L25.4067 15.1731L25.3946 15.1835L25.3831 15.1936L25.3775 15.1978L25.3713 15.203L25.3601 15.2131L25.3486 15.2232L25.3365 15.2336L25.3337 15.2364L25.3253 15.2427L25.3142 15.2531L25.3027 15.2632L25.2912 15.2733L25.2895 15.2743L25.2801 15.2837L25.2676 15.2928L25.2564 15.3029L25.2463 15.3123L25.2453 15.3133L25.2342 15.3234L25.2227 15.3338L25.2101 15.3429L25.2021 15.3512L25.199 15.353L25.1875 15.3634L25.1764 15.3735L25.1649 15.3836L25.1576 15.3892L25.1527 15.393L25.1413 15.4031L25.1298 15.4135L25.1186 15.4236L25.1134 15.4274L25.1071 15.4337L25.095 15.4431L25.0835 15.4532L25.072 15.4636L25.0689 15.4654L25.0605 15.4737L25.0142 15.5137L25.0031 15.5242L24.9916 15.5343L24.9815 15.5437L24.9794 15.5444L24.968 15.5548L24.9565 15.5649L24.8987 15.6153L24.8925 15.6206L24.8872 15.6258L24.8747 15.6362L24.8636 15.6463L24.8295 15.6762L24.818 15.6867L24.8058 15.6968L24.8041 15.6988L24.7947 15.7069L24.7835 15.7173L24.7721 15.7274L22.3516 13.307L21.0548 18.1454L19.7579 22.9848L24.5974 21.688L29.4354 20.3911L27.2443 18.1996L27.2784 18.1708L27.3247 18.1297L27.404 18.0594L27.4319 18.0347L27.4844 17.9891L27.5641 17.9178L27.5867 17.8987L27.6445 17.8482L27.7249 17.7779L27.7412 17.7633L27.8052 17.7076L27.8856 17.6373L27.8961 17.6283L27.966 17.5674L28.0464 17.4971L28.052 17.4933L28.1268 17.4272L28.2075 17.3579L28.2889 17.288L28.363 17.224L28.3693 17.2177L28.4497 17.1485L28.5186 17.0886L28.5311 17.0785L28.6115 17.0093L28.6745 16.9546L28.6929 16.94L28.7733 16.8697L28.831 16.8214L28.8547 16.8008L28.9361 16.7316L28.9873 16.6874L29.0175 16.6627L29.099 16.5935L29.1439 16.5541L29.18 16.5242L29.2615 16.455L29.3018 16.4209L29.3429 16.3861L29.4243 16.3168L29.4595 16.2879L29.5057 16.2486L29.5882 16.1794L29.6167 16.1547L29.6696 16.1101L29.751 16.0423L29.7747 16.0228L29.8335 15.9744L29.9149 15.9052L29.9323 15.8906L29.9971 15.837L30.0795 15.7691L30.0907 15.759L30.1609 15.7002L30.2434 15.6324L30.2483 15.6286L30.3259 15.5645L30.408 15.4977L30.4905 15.4295L30.5667 15.3669L30.5729 15.3613L30.6554 15.2935L30.7253 15.2361L30.7375 15.2267L30.82 15.1588L30.8851 15.1063L30.9025 15.092L30.986 15.0248L31.0444 14.9765L31.0681 14.957L31.1505 14.8902L31.2045 14.8481L31.2341 14.8234L31.3165 14.7566L31.3638 14.7183L31.4 14.6891L31.4835 14.6223L31.5246 14.5892L31.566 14.5565L31.6495 14.4893L31.6854 14.4605L31.733 14.4222L31.8165 14.3564L31.8468 14.3328L31.9001 14.2903L31.9836 14.2235L32.0072 14.205L32.0667 14.1577L32.1502 14.0916L32.1676 14.0773L32.2334 14.0258L32.3169 13.9597L32.3291 13.9507L32.4004 13.894L32.4846 13.8282C33.1106 14.4232 33.7349 15.0259 34.3546 15.6456Z" fill="#06BDD0"/>
<path fill-rule="evenodd" clip-rule="evenodd" d="M1.82279 48.1772C5.42315 51.7779 13.5909 49.8617 22.5443 44.0357C20.9022 42.8151 19.3127 41.5238 17.7946 40.1963C12.2596 43.9192 7.80634 45.4676 6.16988 43.8308C4.53167 42.1936 6.0801 37.7411 9.80399 32.2057C8.47617 30.6876 7.18523 29.0981 5.96458 27.4561C0.138309 36.4091 -1.77792 44.5758 1.82279 48.1772Z" fill="#06BDD0"/>
<path fill-rule="evenodd" clip-rule="evenodd" d="M40.1953 17.7935C41.5239 19.312 42.8145 20.9015 44.0348 22.5442C49.8617 13.5901 51.7769 5.42348 48.1765 1.82277C44.5758 -1.77863 36.4085 0.137595 27.4551 5.96456C29.0978 7.18486 30.6873 8.47545 32.2058 9.80293C37.7398 6.08009 42.1926 4.53165 43.8305 6.16847C45.4677 7.80563 43.9196 12.2595 40.1953 17.7935Z" fill="#06BDD0"/>
<path fill-rule="evenodd" clip-rule="evenodd" d="M29.8521 11.4711C30.6542 10.875 31.4409 10.3187 32.2064 9.80297C31.4475 9.14045 33.797 6.60451 33.006 5.96461C32.2127 5.32262 28.2783 6.57493 27.4557 5.96461C26.6432 6.49316 25.8231 7.05408 25.0005 7.64665C22.6688 9.40108 23.0296 11.0452 23.5853 11.4711C24.6525 12.2888 25.9866 12.9625 29.8521 11.4711Z" fill="#06BDD0"/>
<path fill-rule="evenodd" clip-rule="evenodd" d="M29.852 11.4714C28.2351 10.0837 26.6104 8.80569 25.0004 7.64697C23.389 8.80534 21.7661 10.0837 20.1484 11.4714C21.7153 12.635 23.3438 13.9472 25.0004 15.3881C26.656 13.9475 28.2845 12.635 29.852 11.4714Z" fill="#06BDD0"/>
<path fill-rule="evenodd" clip-rule="evenodd" d="M25.0012 42.3528C24.7806 41.2723 23.2321 40.0065 22.0498 39.0377C21.6127 38.68 20.8809 38.5283 20.1492 38.5283C19.3464 39.1244 18.5597 39.6808 17.7952 40.1964C16.0829 43.0421 13.6423 45.2861 14.3821 45.8884C15.2231 46.5718 17.9908 45.4698 22.5449 44.0362C23.3577 43.5063 24.1775 42.9453 25.0012 42.3528Z" fill="#06BDD0"/>
</g>
<defs>
<clipPath id="clip0_204_13008">
<rect width="50" height="50" fill="white"/>
</clipPath>
</defs>
</svg>
