<svg width="52" height="50" viewBox="0 0 52 50" fill="none" xmlns="http://www.w3.org/2000/svg">
<path fill-rule="evenodd" clip-rule="evenodd" d="M4.02734 22.6227V8.63759C4.02734 3.88755 7.91489 0 12.6649 0H45.7975V0.0546949C45.7932 0.816217 45.4903 1.54829 44.956 2.09103C44.409 2.64639 43.6644 2.96615 42.8818 2.97036H13.4685C12.097 2.97036 10.9736 4.09371 10.9736 5.46529V6.13846C10.9736 7.51004 12.097 8.63339 13.4685 8.63339H20.0908H31.4506H36.4572H42.6546C44.3838 8.63339 45.7932 10.047 45.7932 11.7762V13.9304C45.7932 15.6596 44.3796 17.0732 42.6546 17.0732H36.4572H35.7799C34.0759 17.0732 32.6791 18.4701 32.6791 20.1698V21.6129C32.6791 23.3169 34.0717 24.7095 35.7799 24.7095H43.7443C40.694 26.7879 37.0968 27.8986 33.4196 28.2983C30.3188 28.6349 27.2138 28.7822 24.1046 29.0094C21.2142 29.2155 18.2607 29.4848 15.4418 30.1706C14.1543 30.4819 12.9973 31.2434 12.2021 32.3079C10.6202 34.4326 10.8726 37.0663 12.3957 39.1237C9.36641 37.1042 6.90935 34.3064 5.49149 30.6376C5.25167 30.0191 5.04972 29.3838 4.88143 28.7443L4.80149 28.4372C4.33448 26.5397 4.07783 24.5833 4.02734 22.6227ZM36.4993 19.2358C37.4123 19.2358 38.1528 19.9805 38.1528 20.8935C38.1528 21.8065 37.4123 22.5511 36.4993 22.5511C35.5863 22.5511 34.8458 21.8107 34.8458 20.8935C34.8416 19.9805 35.5863 19.2358 36.4993 19.2358Z" fill="#888E9E"/>
<mask id="mask0_204_12956" style="mask-type:luminance" maskUnits="userSpaceOnUse" x="0" y="15" width="52" height="35">
<path d="M33.6348 30.3051C27.1597 31.0161 20.9792 30.8983 15.9136 32.1353C12.1649 33.044 10.3179 39.721 23.1544 42.3843C33.0457 44.4374 40.2823 40.4741 44.3844 37.0999C39.8111 42.8849 32.5451 45.7501 24.7447 45.1737C12.8717 44.2944 5.10083 37.6595 2.92986 29.2533C1.78547 24.8398 1.70133 20.237 2.65218 15.8193C-3.65457 27.7428 1.66767 42.5778 14.5757 47.7948C35.4691 55.7887 55.5127 40.9622 50.1863 20.8344C50.1821 20.8344 46.101 28.9503 33.6348 30.3051Z" fill="white"/>
</mask>
<g mask="url(#mask0_204_12956)">
<path d="M55.5153 15.8193H-3.65625V55.7929H55.5153V15.8193Z" fill="url(#paint0_linear_204_12956)"/>
</g>
<defs>
<linearGradient id="paint0_linear_204_12956" x1="7.32662" y1="46.5461" x2="53.7903" y2="19.7171" gradientUnits="userSpaceOnUse">
<stop stop-color="#3FA025"/>
<stop offset="1" stop-color="#E2DE02"/>
</linearGradient>
</defs>
</svg>
